G04 Generated by CircuitCAM Version 4.4*
%FSLAX33Y33*%
%MOMM*%
%ADD10C,0.000000*%
%ADD443C,0.300000*%
%LNSolderPasteTop*%
%LPD*%
G36*
G01X-6223Y-81705D02*
X-6212Y-82091D01*
X-6202Y-82487D01*
X-6195Y-82894D01*
X-6189Y-83310D01*
X-6184Y-83737D01*
X-6182Y-84174D01*
X-6182Y-84622D01*
X-9475Y-84621D01*
X-10348Y-84122D01*
X-10337Y-84605D01*
X-10327Y-85101D01*
X-10320Y-85611D01*
X-10314Y-86135D01*
X-10309Y-86673D01*
X-10307Y-87224D01*
X-10306Y-87788D01*
X-10307Y-88358D01*
X-10309Y-88924D01*
X-10314Y-89487D01*
X-10320Y-90047D01*
X-10327Y-90603D01*
X-10337Y-91156D01*
X-10348Y-91704D01*
X-10346Y-91704D01*
X-9515Y-91288D01*
X-9514Y-90538D01*
X-6182Y-90538D01*
X-6181Y-93204D01*
X-6158Y-93502D01*
X-6087Y-93754D01*
X-5968Y-93961D01*
X-5801Y-94122D01*
X-5587Y-94237D01*
X-5325Y-94307D01*
X-5015Y-94330D01*
X-682Y-94330D01*
X-509Y-94326D01*
X-349Y-94313D01*
X-200Y-94292D01*
X-63Y-94262D01*
X62Y-94224D01*
X175Y-94177D01*
X276Y-94122D01*
X369Y-94057D01*
X457Y-93982D01*
X539Y-93897D01*
X616Y-93802D01*
X689Y-93696D01*
X756Y-93581D01*
X816Y-93453D01*
X715Y-93379D01*
X618Y-93295D01*
X528Y-93202D01*
X445Y-93101D01*
X368Y-92992D01*
X299Y-92873D01*
X235Y-92746D01*
X190Y-92596D01*
X154Y-92410D01*
X123Y-92185D01*
X100Y-91924D01*
X83Y-91624D01*
X72Y-91287D01*
X68Y-90913D01*
X-223Y-90913D01*
X-223Y-90914D01*
X-235Y-91355D01*
X-250Y-91750D01*
X-266Y-92100D01*
X-284Y-92403D01*
X-303Y-92661D01*
X-325Y-92873D01*
X-348Y-93038D01*
X-370Y-93184D01*
X-410Y-93308D01*
X-469Y-93412D01*
X-547Y-93495D01*
X-643Y-93557D01*
X-758Y-93600D01*
X-890Y-93622D01*
X-4723Y-93622D01*
X-4901Y-93610D01*
X-5050Y-93573D01*
X-5174Y-93514D01*
X-5268Y-93429D01*
X-5336Y-93322D01*
X-5377Y-93192D01*
X-5389Y-93038D01*
X-5389Y-90538D01*
X-1932Y-90538D01*
X-1931Y-91204D01*
X-1929Y-91204D01*
X-1100Y-90789D01*
X-1100Y-90788D01*
X-1120Y-90410D01*
X-1138Y-89894D01*
X-1154Y-89240D01*
X-1166Y-88448D01*
X-1174Y-87519D01*
X-1179Y-86452D01*
X-1181Y-85248D01*
X-684Y-84874D01*
X-1431Y-84080D01*
X-2015Y-84622D01*
X-5389Y-84621D01*
X-5389Y-82706D01*
X-4935Y-82287D01*
X-6223Y-81705D01*
G37*
%LPC*%
G36*
G01X-1932Y-84997D02*
X-5389Y-84997D01*
X-5389Y-87329D01*
X-1932Y-87330D01*
X-1932Y-84997D01*
G37*
G36*
G01X-6182Y-84997D02*
X-9514Y-84997D01*
X-9514Y-87329D01*
X-6182Y-87330D01*
X-6182Y-84997D01*
G37*
G36*
G01X-1932Y-87705D02*
X-5389Y-87705D01*
X-5389Y-90162D01*
X-1932Y-90163D01*
X-1932Y-87705D01*
G37*
G36*
G01X-6182Y-87705D02*
X-9514Y-87705D01*
X-9514Y-90162D01*
X-6182Y-90163D01*
X-6182Y-87705D01*
G37*
%LPD*%
G36*
G01X-26959Y18408D02*
X-27409Y18408D01*
X-27409Y17068D01*
X-26959Y17068D01*
X-26959Y18408D01*
G37*
G36*
G01X-27759Y18408D02*
X-28209Y18408D01*
X-28209Y17068D01*
X-27759Y17068D01*
X-27759Y18408D01*
G37*
G36*
G01X-28514Y18288D02*
G75*
G03X-28634Y18408I-120J0D01*
G74*
G01*
G75*
G03X-28754Y18288I0J-120D01*
G74*
G01*
X-28754Y17188D01*
G75*
G03X-28634Y17068I120J0D01*
G74*
G01*
G75*
G03X-28514Y17188I0J120D01*
G74*
G01*
X-28514Y18288D01*
G37*
G36*
G01X-29014Y18288D02*
G75*
G03X-29134Y18408I-120J0D01*
G74*
G01*
G75*
G03X-29254Y18288I0J-120D01*
G74*
G01*
X-29254Y17188D01*
G75*
G03X-29134Y17068I120J0D01*
G74*
G01*
G75*
G03X-29014Y17188I0J120D01*
G74*
G01*
X-29014Y18288D01*
G37*
G36*
G01X-29514Y18288D02*
G75*
G03X-29634Y18408I-120J0D01*
G74*
G01*
G75*
G03X-29754Y18288I0J-120D01*
G74*
G01*
X-29754Y17188D01*
G75*
G03X-29634Y17068I120J0D01*
G74*
G01*
G75*
G03X-29514Y17188I0J120D01*
G74*
G01*
X-29514Y18288D01*
G37*
G36*
G01X-30014Y18288D02*
G75*
G03X-30134Y18408I-120J0D01*
G74*
G01*
G75*
G03X-30254Y18288I0J-120D01*
G74*
G01*
X-30254Y17188D01*
G75*
G03X-30134Y17068I120J0D01*
G74*
G01*
G75*
G03X-30014Y17188I0J120D01*
G74*
G01*
X-30014Y18288D01*
G37*
G36*
G01X-30514Y18288D02*
G75*
G03X-30634Y18408I-120J0D01*
G74*
G01*
G75*
G03X-30754Y18288I0J-120D01*
G74*
G01*
X-30754Y17188D01*
G75*
G03X-30634Y17068I120J0D01*
G74*
G01*
G75*
G03X-30514Y17188I0J120D01*
G74*
G01*
X-30514Y18288D01*
G37*
G36*
G01X-31014Y18288D02*
G75*
G03X-31134Y18408I-120J0D01*
G74*
G01*
G75*
G03X-31254Y18288I0J-120D01*
G74*
G01*
X-31254Y17188D01*
G75*
G03X-31134Y17068I120J0D01*
G74*
G01*
G75*
G03X-31014Y17188I0J120D01*
G74*
G01*
X-31014Y18288D01*
G37*
G36*
G01X-31514Y18288D02*
G75*
G03X-31634Y18408I-120J0D01*
G74*
G01*
G75*
G03X-31754Y18288I0J-120D01*
G74*
G01*
X-31754Y17188D01*
G75*
G03X-31634Y17068I120J0D01*
G74*
G01*
G75*
G03X-31514Y17188I0J120D01*
G74*
G01*
X-31514Y18288D01*
G37*
G36*
G01X-32014Y18288D02*
G75*
G03X-32134Y18408I-120J0D01*
G74*
G01*
G75*
G03X-32254Y18288I0J-120D01*
G74*
G01*
X-32254Y17188D01*
G75*
G03X-32134Y17068I120J0D01*
G74*
G01*
G75*
G03X-32014Y17188I0J120D01*
G74*
G01*
X-32014Y18288D01*
G37*
G36*
G01X-32559Y18408D02*
X-33009Y18408D01*
X-33009Y17068D01*
X-32559Y17068D01*
X-32559Y18408D01*
G37*
G36*
G01X-33359Y18408D02*
X-33809Y18408D01*
X-33809Y17068D01*
X-33359Y17068D01*
X-33359Y18408D01*
G37*
G36*
G01X-9419Y18308D02*
X-12244Y18308D01*
X-12292Y18303D01*
X-12339Y18289D01*
X-12382Y18266D01*
X-12420Y18235D01*
X-12451Y18197D01*
X-12474Y18154D01*
X-12489Y18107D01*
X-12494Y18058D01*
X-12494Y16958D01*
X-12489Y16909D01*
X-12474Y16862D01*
X-12451Y16819D01*
X-12420Y16781D01*
X-12382Y16750D01*
X-12339Y16727D01*
X-12292Y16713D01*
X-12244Y16708D01*
X-9419Y16708D01*
X-9370Y16713D01*
X-9323Y16727D01*
X-9280Y16750D01*
X-9242Y16781D01*
X-9211Y16819D01*
X-9188Y16862D01*
X-9173Y16909D01*
X-9169Y16958D01*
X-9169Y18058D01*
X-9173Y18107D01*
X-9188Y18154D01*
X-9211Y18197D01*
X-9242Y18235D01*
X-9280Y18266D01*
X-9323Y18289D01*
X-9370Y18303D01*
X-9419Y18308D01*
G37*
G36*
G01X-14494Y18308D02*
X-17319Y18308D01*
X-17367Y18303D01*
X-17414Y18289D01*
X-17457Y18266D01*
X-17495Y18235D01*
X-17526Y18197D01*
X-17549Y18154D01*
X-17564Y18107D01*
X-17569Y18058D01*
X-17569Y16958D01*
X-17564Y16909D01*
X-17549Y16862D01*
X-17526Y16819D01*
X-17495Y16781D01*
X-17457Y16750D01*
X-17414Y16727D01*
X-17367Y16713D01*
X-17319Y16708D01*
X-14494Y16708D01*
X-14445Y16713D01*
X-14398Y16727D01*
X-14355Y16750D01*
X-14317Y16781D01*
X-14286Y16819D01*
X-14263Y16862D01*
X-14248Y16909D01*
X-14244Y16958D01*
X-14244Y18058D01*
X-14248Y18107D01*
X-14263Y18154D01*
X-14286Y18197D01*
X-14317Y18235D01*
X-14355Y18266D01*
X-14398Y18289D01*
X-14445Y18303D01*
X-14494Y18308D01*
G37*
G36*
G01X10727Y17749D02*
X7902Y17749D01*
X7853Y17744D01*
X7806Y17730D01*
X7763Y17707D01*
X7725Y17676D01*
X7694Y17638D01*
X7671Y17595D01*
X7656Y17548D01*
X7652Y17499D01*
X7652Y16399D01*
X7656Y16350D01*
X7671Y16303D01*
X7694Y16260D01*
X7725Y16222D01*
X7763Y16191D01*
X7806Y16168D01*
X7853Y16154D01*
X7902Y16149D01*
X10727Y16149D01*
X10775Y16154D01*
X10822Y16168D01*
X10865Y16191D01*
X10903Y16222D01*
X10934Y16260D01*
X10957Y16303D01*
X10972Y16350D01*
X10977Y16399D01*
X10977Y17499D01*
X10972Y17548D01*
X10957Y17595D01*
X10934Y17638D01*
X10903Y17676D01*
X10865Y17707D01*
X10822Y17730D01*
X10775Y17744D01*
X10727Y17749D01*
G37*
G36*
G01X5652Y17749D02*
X2827Y17749D01*
X2778Y17744D01*
X2731Y17730D01*
X2688Y17707D01*
X2650Y17676D01*
X2619Y17638D01*
X2596Y17595D01*
X2581Y17548D01*
X2577Y17499D01*
X2577Y16399D01*
X2581Y16350D01*
X2596Y16303D01*
X2619Y16260D01*
X2650Y16222D01*
X2688Y16191D01*
X2731Y16168D01*
X2778Y16154D01*
X2827Y16149D01*
X5652Y16149D01*
X5700Y16154D01*
X5747Y16168D01*
X5790Y16191D01*
X5828Y16222D01*
X5859Y16260D01*
X5882Y16303D01*
X5897Y16350D01*
X5902Y16399D01*
X5902Y17499D01*
X5897Y17548D01*
X5882Y17595D01*
X5859Y17638D01*
X5828Y17676D01*
X5790Y17707D01*
X5747Y17730D01*
X5700Y17744D01*
X5652Y17749D01*
G37*
G36*
G01X31288Y10092D02*
X30368Y10092D01*
X30248Y10060D01*
X30160Y9972D01*
X30128Y9852D01*
X30128Y9307D01*
X30160Y9187D01*
X30248Y9099D01*
X30368Y9067D01*
X30598Y9067D01*
X30598Y9402D01*
X31058Y9402D01*
X31058Y9067D01*
X31288Y9067D01*
X31408Y9099D01*
X31495Y9187D01*
X31528Y9307D01*
X31528Y9852D01*
X31495Y9972D01*
X31408Y10060D01*
X31288Y10092D01*
G37*
G36*
G01X33243Y10067D02*
X32323Y10067D01*
X32203Y10034D01*
X32116Y9947D01*
X32083Y9827D01*
X32083Y9282D01*
X32116Y9162D01*
X32203Y9074D01*
X32323Y9042D01*
X32553Y9042D01*
X32553Y9377D01*
X33013Y9377D01*
X33013Y9042D01*
X33243Y9042D01*
X33363Y9074D01*
X33451Y9162D01*
X33483Y9282D01*
X33483Y9827D01*
X33451Y9947D01*
X33363Y10034D01*
X33243Y10067D01*
G37*
G36*
G01X31288Y8267D02*
X31058Y8267D01*
X31058Y7932D01*
X30598Y7932D01*
X30598Y8267D01*
X30368Y8267D01*
X30248Y8235D01*
X30160Y8147D01*
X30128Y8027D01*
X30128Y7482D01*
X30160Y7362D01*
X30248Y7274D01*
X30368Y7242D01*
X31288Y7242D01*
X31408Y7274D01*
X31495Y7362D01*
X31528Y7482D01*
X31528Y8027D01*
X31495Y8147D01*
X31408Y8235D01*
X31288Y8267D01*
G37*
G36*
G01X33243Y8242D02*
X33013Y8242D01*
X33013Y7907D01*
X32553Y7907D01*
X32553Y8242D01*
X32323Y8242D01*
X32203Y8209D01*
X32116Y8122D01*
X32083Y8002D01*
X32083Y7457D01*
X32116Y7337D01*
X32203Y7249D01*
X32323Y7217D01*
X33243Y7217D01*
X33363Y7249D01*
X33451Y7337D01*
X33483Y7457D01*
X33483Y8002D01*
X33451Y8122D01*
X33363Y8209D01*
X33243Y8242D01*
G37*
G36*
G01X23451Y6832D02*
X22866Y6832D01*
X22818Y6827D01*
X22772Y6813D01*
X22729Y6791D01*
X22692Y6760D01*
X22662Y6723D01*
X22639Y6681D01*
X22625Y6635D01*
X22621Y6587D01*
X22621Y6027D01*
X22625Y5979D01*
X22639Y5933D01*
X22662Y5891D01*
X22692Y5854D01*
X22729Y5823D01*
X22772Y5801D01*
X22818Y5787D01*
X22866Y5782D01*
X23451Y5782D01*
X23498Y5787D01*
X23544Y5801D01*
X23587Y5823D01*
X23624Y5854D01*
X23654Y5891D01*
X23677Y5933D01*
X23691Y5979D01*
X23696Y6027D01*
X23696Y6587D01*
X23691Y6635D01*
X23677Y6681D01*
X23654Y6723D01*
X23624Y6760D01*
X23587Y6791D01*
X23544Y6813D01*
X23498Y6827D01*
X23451Y6832D01*
G37*
G36*
G01X21825Y6832D02*
X21240Y6832D01*
X21193Y6827D01*
X21147Y6813D01*
X21104Y6791D01*
X21067Y6760D01*
X21037Y6723D01*
X21014Y6681D01*
X21000Y6635D01*
X20995Y6587D01*
X20995Y6027D01*
X21000Y5979D01*
X21014Y5933D01*
X21037Y5891D01*
X21067Y5854D01*
X21104Y5823D01*
X21147Y5801D01*
X21193Y5787D01*
X21240Y5782D01*
X21825Y5782D01*
X21873Y5787D01*
X21919Y5801D01*
X21962Y5823D01*
X21999Y5854D01*
X22029Y5891D01*
X22052Y5933D01*
X22066Y5979D01*
X22070Y6027D01*
X22070Y6587D01*
X22066Y6635D01*
X22052Y6681D01*
X22029Y6723D01*
X21999Y6760D01*
X21962Y6791D01*
X21919Y6813D01*
X21873Y6827D01*
X21825Y6832D01*
G37*
G36*
G01X35439Y5587D02*
X34854Y5587D01*
X34807Y5582D01*
X34761Y5568D01*
X34718Y5546D01*
X34681Y5515D01*
X34651Y5478D01*
X34628Y5436D01*
X34614Y5390D01*
X34609Y5342D01*
X34609Y4782D01*
X34614Y4734D01*
X34628Y4688D01*
X34651Y4646D01*
X34681Y4609D01*
X34718Y4578D01*
X34761Y4556D01*
X34807Y4542D01*
X34854Y4537D01*
X35439Y4537D01*
X35487Y4542D01*
X35533Y4556D01*
X35576Y4578D01*
X35613Y4609D01*
X35643Y4646D01*
X35666Y4688D01*
X35680Y4734D01*
X35684Y4782D01*
X35684Y5342D01*
X35680Y5390D01*
X35666Y5436D01*
X35643Y5478D01*
X35613Y5515D01*
X35576Y5546D01*
X35533Y5568D01*
X35487Y5582D01*
X35439Y5587D01*
G37*
G36*
G01X33814Y5587D02*
X33229Y5587D01*
X33182Y5582D01*
X33136Y5568D01*
X33093Y5546D01*
X33056Y5515D01*
X33026Y5478D01*
X33003Y5436D01*
X32989Y5390D01*
X32984Y5342D01*
X32984Y4782D01*
X32989Y4734D01*
X33003Y4688D01*
X33026Y4646D01*
X33056Y4609D01*
X33093Y4578D01*
X33136Y4556D01*
X33182Y4542D01*
X33229Y4537D01*
X33814Y4537D01*
X33862Y4542D01*
X33908Y4556D01*
X33951Y4578D01*
X33988Y4609D01*
X34018Y4646D01*
X34041Y4688D01*
X34055Y4734D01*
X34059Y4782D01*
X34059Y5342D01*
X34055Y5390D01*
X34041Y5436D01*
X34018Y5478D01*
X33988Y5515D01*
X33951Y5546D01*
X33908Y5568D01*
X33862Y5582D01*
X33814Y5587D01*
G37*
G36*
G01X20874Y5422D02*
X19954Y5422D01*
X19834Y5390D01*
X19746Y5302D01*
X19714Y5182D01*
X19714Y4637D01*
X19746Y4517D01*
X19834Y4429D01*
X19954Y4397D01*
X20184Y4397D01*
X20184Y4732D01*
X20644Y4732D01*
X20644Y4397D01*
X20874Y4397D01*
X20994Y4429D01*
X21081Y4517D01*
X21114Y4637D01*
X21114Y5182D01*
X21081Y5302D01*
X20994Y5390D01*
X20874Y5422D01*
G37*
G36*
G01X30152Y4422D02*
X29020Y3290D01*
X29338Y2972D01*
X30470Y4104D01*
X30152Y4422D01*
G37*
G36*
G01X27287Y4422D02*
X26969Y4104D01*
X28101Y2972D01*
X28419Y3290D01*
X27287Y4422D01*
G37*
G36*
G01X26721Y3856D02*
X26403Y3538D01*
X27535Y2406D01*
X27853Y2724D01*
X26721Y3856D01*
G37*
G36*
G01X20874Y3597D02*
X20644Y3597D01*
X20644Y3262D01*
X20184Y3262D01*
X20184Y3597D01*
X19954Y3597D01*
X19834Y3565D01*
X19746Y3477D01*
X19714Y3357D01*
X19714Y2812D01*
X19746Y2692D01*
X19834Y2604D01*
X19954Y2572D01*
X20874Y2572D01*
X20994Y2604D01*
X21081Y2692D01*
X21114Y2812D01*
X21114Y3357D01*
X21081Y3477D01*
X20994Y3565D01*
X20874Y3597D01*
G37*
G36*
G01X26156Y3291D02*
X25838Y2973D01*
X26970Y1841D01*
X27288Y2159D01*
X26156Y3291D01*
G37*
G36*
G01X25590Y2725D02*
X25272Y2407D01*
X26404Y1275D01*
X26722Y1593D01*
X25590Y2725D01*
G37*
G36*
G01X25024Y2159D02*
X24706Y1841D01*
X25838Y709D01*
X26156Y1027D01*
X25024Y2159D01*
G37*
G36*
G01X24459Y1594D02*
X24141Y1276D01*
X25273Y144D01*
X25591Y462D01*
X24459Y1594D01*
G37*
G36*
G01X23893Y1028D02*
X23575Y710D01*
X24707Y-422D01*
X25025Y-104D01*
X23893Y1028D01*
G37*
G36*
G01X23327Y462D02*
X23009Y144D01*
X24141Y-988D01*
X24459Y-670D01*
X23327Y462D01*
G37*
G36*
G01X30717Y3856D02*
X29585Y2724D01*
X29903Y2406D01*
X31035Y3538D01*
X30717Y3856D01*
G37*
G36*
G01X31283Y3291D02*
X30151Y2159D01*
X30469Y1841D01*
X31601Y2973D01*
X31283Y3291D01*
G37*
G36*
G01X31849Y2725D02*
X30717Y1593D01*
X31035Y1275D01*
X32167Y2407D01*
X31849Y2725D01*
G37*
G36*
G01X32414Y2159D02*
X31282Y1027D01*
X31600Y709D01*
X32732Y1841D01*
X32414Y2159D01*
G37*
G36*
G01X32980Y1594D02*
X31848Y462D01*
X32166Y144D01*
X33298Y1276D01*
X32980Y1594D01*
G37*
G36*
G01X33546Y1028D02*
X32414Y-104D01*
X32732Y-422D01*
X33864Y710D01*
X33546Y1028D01*
G37*
G36*
G01X34111Y462D02*
X32979Y-670D01*
X33297Y-988D01*
X34429Y144D01*
X34111Y462D01*
G37*
G36*
G01X33297Y-1588D02*
X32979Y-1906D01*
X34111Y-3038D01*
X34429Y-2720D01*
X33297Y-1588D01*
G37*
G36*
G01X24141Y-1588D02*
X23009Y-2720D01*
X23327Y-3038D01*
X24459Y-1906D01*
X24141Y-1588D01*
G37*
G36*
G01X32732Y-2154D02*
X32414Y-2472D01*
X33546Y-3604D01*
X33864Y-3286D01*
X32732Y-2154D01*
G37*
G36*
G01X24707Y-2154D02*
X23575Y-3286D01*
X23893Y-3604D01*
X25025Y-2472D01*
X24707Y-2154D01*
G37*
G36*
G01X32166Y-2720D02*
X31848Y-3038D01*
X32980Y-4170D01*
X33298Y-3852D01*
X32166Y-2720D01*
G37*
G36*
G01X25273Y-2720D02*
X24141Y-3852D01*
X24459Y-4170D01*
X25591Y-3038D01*
X25273Y-2720D01*
G37*
G36*
G01X31600Y-3285D02*
X31282Y-3603D01*
X32414Y-4735D01*
X32732Y-4417D01*
X31600Y-3285D01*
G37*
G36*
G01X25838Y-3285D02*
X24706Y-4417D01*
X25024Y-4735D01*
X26156Y-3603D01*
X25838Y-3285D01*
G37*
G36*
G01X31035Y-3851D02*
X30717Y-4169D01*
X31849Y-5301D01*
X32167Y-4983D01*
X31035Y-3851D01*
G37*
G36*
G01X26404Y-3851D02*
X25272Y-4983D01*
X25590Y-5301D01*
X26722Y-4169D01*
X26404Y-3851D01*
G37*
G36*
G01X30469Y-4417D02*
X30151Y-4735D01*
X31283Y-5867D01*
X31601Y-5549D01*
X30469Y-4417D01*
G37*
G36*
G01X26970Y-4417D02*
X25838Y-5549D01*
X26156Y-5867D01*
X27288Y-4735D01*
X26970Y-4417D01*
G37*
G36*
G01X29903Y-4982D02*
X29585Y-5300D01*
X30717Y-6432D01*
X31035Y-6114D01*
X29903Y-4982D01*
G37*
G36*
G01X27535Y-4982D02*
X26403Y-6114D01*
X26721Y-6432D01*
X27853Y-5300D01*
X27535Y-4982D01*
G37*
G36*
G01X23248Y-6428D02*
X22663Y-6428D01*
X22615Y-6433D01*
X22569Y-6447D01*
X22526Y-6469D01*
X22489Y-6500D01*
X22459Y-6537D01*
X22436Y-6579D01*
X22422Y-6625D01*
X22418Y-6673D01*
X22418Y-7233D01*
X22422Y-7281D01*
X22436Y-7327D01*
X22459Y-7369D01*
X22489Y-7406D01*
X22526Y-7437D01*
X22569Y-7459D01*
X22615Y-7473D01*
X22663Y-7478D01*
X23248Y-7478D01*
X23295Y-7473D01*
X23341Y-7459D01*
X23384Y-7437D01*
X23421Y-7406D01*
X23451Y-7369D01*
X23474Y-7327D01*
X23488Y-7281D01*
X23493Y-7233D01*
X23493Y-6673D01*
X23488Y-6625D01*
X23474Y-6579D01*
X23451Y-6537D01*
X23421Y-6500D01*
X23384Y-6469D01*
X23341Y-6447D01*
X23295Y-6433D01*
X23248Y-6428D01*
G37*
G36*
G01X21623Y-6428D02*
X21038Y-6428D01*
X20990Y-6433D01*
X20944Y-6447D01*
X20901Y-6469D01*
X20864Y-6500D01*
X20834Y-6537D01*
X20811Y-6579D01*
X20797Y-6625D01*
X20793Y-6673D01*
X20793Y-7233D01*
X20797Y-7281D01*
X20811Y-7327D01*
X20834Y-7369D01*
X20864Y-7406D01*
X20901Y-7437D01*
X20944Y-7459D01*
X20990Y-7473D01*
X21038Y-7478D01*
X21623Y-7478D01*
X21670Y-7473D01*
X21716Y-7459D01*
X21759Y-7437D01*
X21796Y-7406D01*
X21826Y-7369D01*
X21849Y-7327D01*
X21863Y-7281D01*
X21868Y-7233D01*
X21868Y-6673D01*
X21863Y-6625D01*
X21849Y-6579D01*
X21826Y-6537D01*
X21796Y-6500D01*
X21759Y-6469D01*
X21716Y-6447D01*
X21670Y-6433D01*
X21623Y-6428D01*
G37*
G36*
G01X29338Y-5548D02*
X29020Y-5866D01*
X30152Y-6998D01*
X30470Y-6680D01*
X29338Y-5548D01*
G37*
G36*
G01X28101Y-5548D02*
X26969Y-6680D01*
X27287Y-6998D01*
X28419Y-5866D01*
X28101Y-5548D01*
G37*
G54D10*
X-189999Y135000D02*
G75*
G02X-184999Y140000I5000J0D01*
G74*
G01*
X185001Y140000D01*
G75*
G02X190001Y135000I0J-5000D01*
G74*
G01*
X190001Y-135000D01*
G75*
G02X185001Y-140000I-5000J0D01*
G74*
G01*
X-184999Y-140000D01*
G75*
G02X-189999Y-135000I0J5000D01*
G74*
G01*
X-189999Y135000D01*
G36*
G01X-34364Y-94794D02*
X-34773Y-95226D01*
X-34648Y-95392D01*
X-33878Y-94793D01*
X-33210Y-94137D01*
X-32643Y-93425D01*
X-32179Y-92658D01*
X-31817Y-91834D01*
X-31557Y-90954D01*
X-31398Y-90017D01*
X-26607Y-90017D01*
X-26608Y-91113D01*
X-26610Y-92113D01*
X-26614Y-93017D01*
X-26620Y-93827D01*
X-26628Y-94541D01*
X-26637Y-95160D01*
X-26649Y-95684D01*
X-25774Y-95267D01*
X-25785Y-94826D01*
X-25794Y-94288D01*
X-25802Y-93653D01*
X-25808Y-92920D01*
X-25812Y-92091D01*
X-25814Y-91165D01*
X-25815Y-90142D01*
X-25357Y-89767D01*
X-26315Y-89059D01*
X-26690Y-89642D01*
X-31398Y-89642D01*
X-31365Y-89340D01*
X-31337Y-89027D01*
X-31314Y-88704D01*
X-31296Y-88370D01*
X-31284Y-88027D01*
X-31276Y-87673D01*
X-31274Y-87309D01*
X-22524Y-87309D01*
X-23523Y-86101D01*
X-24357Y-86934D01*
X-26690Y-86934D01*
X-26690Y-83726D01*
X-26274Y-83267D01*
X-27524Y-82684D01*
X-27512Y-83118D01*
X-27503Y-83609D01*
X-27495Y-84158D01*
X-27489Y-84766D01*
X-27485Y-85431D01*
X-27483Y-86153D01*
X-27482Y-86934D01*
X-31274Y-86934D01*
X-31274Y-84434D01*
X-30774Y-84017D01*
X-32107Y-83392D01*
X-32096Y-83846D01*
X-32086Y-84352D01*
X-32079Y-84908D01*
X-32073Y-85515D01*
X-32069Y-86173D01*
X-32066Y-86882D01*
X-32065Y-87642D01*
X-32088Y-88406D01*
X-32133Y-89125D01*
X-32200Y-89800D01*
X-32290Y-90431D01*
X-32401Y-91018D01*
X-32535Y-91561D01*
X-32690Y-92059D01*
X-32876Y-92532D01*
X-33098Y-92998D01*
X-33359Y-93457D01*
X-33656Y-93909D01*
X-33991Y-94355D01*
X-34364Y-94794D01*
G37*
G36*
G01X-44283Y-94666D02*
X-44294Y-95434D01*
X-43461Y-95059D01*
X-43472Y-94695D01*
X-43481Y-94365D01*
X-43489Y-94069D01*
X-43495Y-93807D01*
X-43499Y-93579D01*
X-43502Y-93386D01*
X-43503Y-93226D01*
X-43503Y-84351D01*
X-38544Y-84351D01*
X-38544Y-93934D01*
X-38549Y-94012D01*
X-38565Y-94080D01*
X-38590Y-94138D01*
X-38626Y-94186D01*
X-38672Y-94223D01*
X-38728Y-94250D01*
X-38794Y-94267D01*
X-38888Y-94264D01*
X-39026Y-94254D01*
X-39208Y-94237D01*
X-39434Y-94213D01*
X-39704Y-94182D01*
X-40019Y-94145D01*
X-40378Y-94101D01*
X-40378Y-94351D01*
X-40009Y-94456D01*
X-39691Y-94582D01*
X-39421Y-94728D01*
X-39201Y-94895D01*
X-39030Y-95082D01*
X-38908Y-95289D01*
X-38836Y-95517D01*
X-38666Y-95444D01*
X-38513Y-95368D01*
X-38377Y-95288D01*
X-38258Y-95204D01*
X-38156Y-95118D01*
X-38071Y-95028D01*
X-38003Y-94934D01*
X-37947Y-94827D01*
X-37901Y-94720D01*
X-37862Y-94613D01*
X-37833Y-94505D01*
X-37811Y-94398D01*
X-37799Y-94291D01*
X-37794Y-94184D01*
X-37794Y-84476D01*
X-37378Y-84226D01*
X-38169Y-83476D01*
X-38669Y-83976D01*
X-43461Y-83976D01*
X-44294Y-83476D01*
X-44283Y-84166D01*
X-44274Y-84904D01*
X-44266Y-85690D01*
X-44260Y-86523D01*
X-44256Y-87404D01*
X-44254Y-88333D01*
X-44253Y-89309D01*
X-44254Y-90291D01*
X-44256Y-91238D01*
X-44260Y-92148D01*
X-44266Y-93023D01*
X-44274Y-93863D01*
X-44283Y-94666D01*
G37*
G36*
G01X-49761Y-88249D02*
X-50253Y-89017D01*
X-50086Y-89142D01*
X-49909Y-88952D01*
X-49736Y-88761D01*
X-49566Y-88571D01*
X-49399Y-88380D01*
X-49236Y-88190D01*
X-49076Y-87999D01*
X-48919Y-87809D01*
X-47794Y-87809D01*
X-47794Y-89976D01*
X-50086Y-89976D01*
X-49586Y-90517D01*
X-49406Y-90473D01*
X-49222Y-90436D01*
X-49035Y-90405D01*
X-48845Y-90381D01*
X-48651Y-90364D01*
X-48453Y-90354D01*
X-48253Y-90351D01*
X-47794Y-90351D01*
X-47794Y-93309D01*
X-47799Y-93469D01*
X-47811Y-93615D01*
X-47833Y-93748D01*
X-47862Y-93867D01*
X-47901Y-93972D01*
X-47947Y-94064D01*
X-48003Y-94142D01*
X-47336Y-94976D01*
X-47095Y-94661D01*
X-46799Y-94312D01*
X-46448Y-93930D01*
X-46043Y-93513D01*
X-45584Y-93062D01*
X-45071Y-92578D01*
X-44503Y-92059D01*
X-44628Y-91892D01*
X-47003Y-93476D01*
X-47003Y-90351D01*
X-44336Y-90351D01*
X-45253Y-89392D01*
X-45836Y-89976D01*
X-47003Y-89976D01*
X-47003Y-87809D01*
X-44836Y-87809D01*
X-45669Y-86892D01*
X-46253Y-87434D01*
X-48753Y-87434D01*
X-48620Y-87224D01*
X-48484Y-86999D01*
X-48345Y-86758D01*
X-48202Y-86502D01*
X-48055Y-86231D01*
X-47906Y-85944D01*
X-47753Y-85642D01*
X-44336Y-85642D01*
X-45253Y-84684D01*
X-45836Y-85267D01*
X-47628Y-85267D01*
X-47533Y-85034D01*
X-47441Y-84812D01*
X-47350Y-84599D01*
X-47260Y-84397D01*
X-47173Y-84204D01*
X-47087Y-84022D01*
X-47003Y-83851D01*
X-46586Y-83434D01*
X-47669Y-82851D01*
X-47916Y-83844D01*
X-48203Y-84800D01*
X-48532Y-85718D01*
X-48901Y-86599D01*
X-49310Y-87443D01*
X-49761Y-88249D01*
G37*
G36*
G01X10195Y-94439D02*
X10173Y-94788D01*
X11007Y-94372D01*
X11007Y-83913D01*
X14173Y-83913D01*
X14173Y-90288D01*
X14164Y-90443D01*
X14136Y-90574D01*
X14089Y-90681D01*
X14024Y-90765D01*
X13939Y-90824D01*
X13836Y-90860D01*
X13715Y-90872D01*
X13571Y-90869D01*
X13402Y-90861D01*
X13207Y-90849D01*
X12987Y-90831D01*
X12741Y-90808D01*
X12470Y-90780D01*
X12173Y-90747D01*
X12132Y-90955D01*
X12574Y-91090D01*
X12948Y-91234D01*
X13254Y-91386D01*
X13492Y-91547D01*
X13662Y-91716D01*
X13764Y-91894D01*
X13798Y-92080D01*
X14118Y-91924D01*
X14387Y-91743D01*
X14604Y-91537D01*
X14771Y-91304D01*
X14887Y-91047D01*
X14951Y-90764D01*
X14965Y-90455D01*
X14965Y-84080D01*
X15423Y-83663D01*
X14465Y-82955D01*
X14090Y-83538D01*
X10965Y-83538D01*
X10173Y-83038D01*
X10195Y-83339D01*
X10214Y-83620D01*
X10229Y-83883D01*
X10241Y-84127D01*
X10250Y-84352D01*
X10255Y-84559D01*
X10257Y-84747D01*
X10257Y-93163D01*
X10255Y-93278D01*
X10250Y-93432D01*
X10241Y-93625D01*
X10229Y-93857D01*
X10214Y-94128D01*
X10195Y-94439D01*
G37*
G36*
G01X4197Y-91356D02*
X4131Y-91455D01*
X4840Y-92538D01*
X5097Y-92266D01*
X5489Y-91974D01*
X6016Y-91661D01*
X6677Y-91327D01*
X7472Y-90974D01*
X8401Y-90600D01*
X9465Y-90205D01*
X9423Y-89955D01*
X5132Y-91205D01*
X5132Y-87372D01*
X9298Y-87372D01*
X8298Y-86330D01*
X7632Y-86997D01*
X5132Y-86997D01*
X5132Y-83788D01*
X5530Y-83693D01*
X5917Y-83598D01*
X6292Y-83503D01*
X6655Y-83407D01*
X7006Y-83312D01*
X7346Y-83217D01*
X7673Y-83122D01*
X7988Y-83043D01*
X8289Y-82975D01*
X8576Y-82918D01*
X8850Y-82870D01*
X9110Y-82833D01*
X9357Y-82805D01*
X9590Y-82788D01*
X8715Y-81788D01*
X8468Y-82027D01*
X8133Y-82268D01*
X7710Y-82510D01*
X7198Y-82754D01*
X6597Y-83000D01*
X5909Y-83248D01*
X5132Y-83497D01*
X4298Y-82997D01*
X4309Y-83270D01*
X4319Y-83517D01*
X4326Y-83739D01*
X4332Y-83935D01*
X4336Y-84106D01*
X4339Y-84252D01*
X4340Y-84372D01*
X4340Y-90580D01*
X4346Y-90731D01*
X4340Y-90873D01*
X4322Y-91006D01*
X4292Y-91131D01*
X4251Y-91248D01*
X4197Y-91356D01*
G37*
G36*
G01X-42935Y-91900D02*
X-43336Y-92476D01*
X-43169Y-92642D01*
X-42754Y-92200D01*
X-42363Y-91755D01*
X-41998Y-91306D01*
X-41659Y-90853D01*
X-41345Y-90397D01*
X-41057Y-89938D01*
X-40794Y-89476D01*
X-40622Y-89791D01*
X-40461Y-90095D01*
X-40312Y-90386D01*
X-40175Y-90666D01*
X-40050Y-90934D01*
X-39937Y-91190D01*
X-39836Y-91434D01*
X-39777Y-91611D01*
X-39720Y-91761D01*
X-39665Y-91883D01*
X-39612Y-91978D01*
X-39560Y-92046D01*
X-39509Y-92087D01*
X-39461Y-92101D01*
X-39435Y-92097D01*
X-39407Y-92087D01*
X-39374Y-92070D01*
X-39339Y-92046D01*
X-39299Y-92016D01*
X-39257Y-91978D01*
X-39211Y-91934D01*
X-39167Y-91883D01*
X-39129Y-91825D01*
X-39099Y-91761D01*
X-39075Y-91689D01*
X-39058Y-91611D01*
X-39048Y-91526D01*
X-39044Y-91434D01*
X-39040Y-91332D01*
X-39051Y-91216D01*
X-39078Y-91087D01*
X-39119Y-90944D01*
X-39176Y-90788D01*
X-39248Y-90618D01*
X-39336Y-90434D01*
X-39441Y-90236D01*
X-39564Y-90022D01*
X-39706Y-89794D01*
X-39867Y-89550D01*
X-40046Y-89290D01*
X-40244Y-89016D01*
X-40461Y-88726D01*
X-40329Y-88407D01*
X-40196Y-88069D01*
X-40060Y-87713D01*
X-39924Y-87338D01*
X-39785Y-86944D01*
X-39645Y-86532D01*
X-39503Y-86101D01*
X-39128Y-85726D01*
X-40211Y-85101D01*
X-40257Y-85447D01*
X-40323Y-85818D01*
X-40410Y-86215D01*
X-40517Y-86638D01*
X-40645Y-87086D01*
X-40793Y-87560D01*
X-40961Y-88059D01*
X-41259Y-87718D01*
X-41556Y-87386D01*
X-41854Y-87062D01*
X-42151Y-86746D01*
X-42449Y-86439D01*
X-42747Y-86141D01*
X-43044Y-85851D01*
X-43169Y-86017D01*
X-42833Y-86482D01*
X-42516Y-86922D01*
X-42218Y-87339D01*
X-41938Y-87732D01*
X-41677Y-88101D01*
X-41435Y-88446D01*
X-41211Y-88767D01*
X-41418Y-89251D01*
X-41657Y-89750D01*
X-41928Y-90265D01*
X-42231Y-90795D01*
X-42567Y-91340D01*
X-42935Y-91900D01*
G37*
G54D443*
X-54713Y-57392D02*
X-54713Y-60674D01*
X-54713Y-57392D02*
X-53463Y-60674D01*
X-52213Y-57392D02*
X-53463Y-60674D01*
X-52213Y-57392D02*
X-52213Y-60674D01*
X-50182Y-57392D02*
X-50495Y-57549D01*
X-50807Y-57861D01*
X-50963Y-58174D01*
X-51120Y-58642D01*
X-51120Y-59424D01*
X-50963Y-59892D01*
X-50807Y-60205D01*
X-50495Y-60517D01*
X-50182Y-60674D01*
X-49557Y-60674D01*
X-49245Y-60517D01*
X-48932Y-60205D01*
X-48776Y-59892D01*
X-48620Y-59424D01*
X-48620Y-58642D01*
X-48776Y-58174D01*
X-48932Y-57861D01*
X-49245Y-57549D01*
X-49557Y-57392D01*
X-50182Y-57392D01*
X-47526Y-57392D02*
X-47526Y-60674D01*
X-47526Y-57392D02*
X-46432Y-57392D01*
X-45963Y-57549D01*
X-45651Y-57861D01*
X-45495Y-58174D01*
X-45338Y-58642D01*
X-45338Y-59424D01*
X-45495Y-59892D01*
X-45651Y-60205D01*
X-45963Y-60517D01*
X-46432Y-60674D01*
X-47526Y-60674D01*
X-44245Y-57392D02*
X-44245Y-60674D01*
X-44245Y-57392D02*
X-42213Y-57392D01*
X-44245Y-58955D02*
X-42995Y-58955D01*
X-44245Y-60674D02*
X-42213Y-60674D01*
X-41276Y-57392D02*
X-41276Y-60674D01*
X-41276Y-60674D02*
X-39401Y-60674D01*
X-38463Y-58486D02*
X-38620Y-58642D01*
X-38463Y-58799D01*
X-38307Y-58642D01*
X-38463Y-58486D01*
X-38463Y-60361D02*
X-38620Y-60517D01*
X-38463Y-60674D01*
X-38307Y-60517D01*
X-38463Y-60361D01*
X-34870Y-58174D02*
X-35026Y-57861D01*
X-35338Y-57549D01*
X-35651Y-57392D01*
X-36276Y-57392D01*
X-36588Y-57549D01*
X-36901Y-57861D01*
X-37057Y-58174D01*
X-37213Y-58642D01*
X-37213Y-59424D01*
X-37057Y-59892D01*
X-36901Y-60205D01*
X-36588Y-60517D01*
X-36276Y-60674D01*
X-35651Y-60674D01*
X-35338Y-60517D01*
X-35026Y-60205D01*
X-34870Y-59892D01*
X-34870Y-59424D01*
X-35651Y-59424D02*
X-34870Y-59424D01*
X-33776Y-57392D02*
X-33776Y-60674D01*
X-33776Y-57392D02*
X-31588Y-60674D01*
X-31588Y-57392D02*
X-31588Y-60674D01*
X-27838Y-57392D02*
X-27838Y-60674D01*
X-27838Y-57392D02*
X-26745Y-57392D01*
X-26276Y-57549D01*
X-25963Y-57861D01*
X-25807Y-58174D01*
X-25651Y-58642D01*
X-25651Y-59424D01*
X-25807Y-59892D01*
X-25963Y-60205D01*
X-26276Y-60517D01*
X-26745Y-60674D01*
X-27838Y-60674D01*
X-24557Y-57392D02*
X-24557Y-60674D01*
X-21276Y-57861D02*
X-21588Y-57549D01*
X-22057Y-57392D01*
X-22682Y-57392D01*
X-23151Y-57549D01*
X-23463Y-57861D01*
X-23463Y-58174D01*
X-23307Y-58486D01*
X-23151Y-58642D01*
X-22838Y-58799D01*
X-21901Y-59111D01*
X-21588Y-59267D01*
X-21432Y-59424D01*
X-21276Y-59736D01*
X-21276Y-60205D01*
X-21588Y-60517D01*
X-22057Y-60674D01*
X-22682Y-60674D01*
X-23151Y-60517D01*
X-23463Y-60205D01*
X-20182Y-59267D02*
X-17370Y-59267D01*
X-16120Y-57392D02*
X-16120Y-60674D01*
X-16120Y-57392D02*
X-14713Y-57392D01*
X-14245Y-57549D01*
X-14088Y-57705D01*
X-13932Y-58017D01*
X-13932Y-58330D01*
X-14088Y-58642D01*
X-14245Y-58799D01*
X-14713Y-58955D01*
X-16120Y-58955D02*
X-14713Y-58955D01*
X-14245Y-59111D01*
X-14088Y-59267D01*
X-13932Y-59580D01*
X-13932Y-60049D01*
X-14088Y-60361D01*
X-14245Y-60517D01*
X-14713Y-60674D01*
X-16120Y-60674D01*
X-12057Y-57392D02*
X-12370Y-57549D01*
X-12682Y-57861D01*
X-12838Y-58174D01*
X-12995Y-58642D01*
X-12995Y-59424D01*
X-12838Y-59892D01*
X-12682Y-60205D01*
X-12370Y-60517D01*
X-12057Y-60674D01*
X-11432Y-60674D01*
X-11120Y-60517D01*
X-10807Y-60205D01*
X-10651Y-59892D01*
X-10495Y-59424D01*
X-10495Y-58642D01*
X-10651Y-58174D01*
X-10807Y-57861D01*
X-11120Y-57549D01*
X-11432Y-57392D01*
X-12057Y-57392D01*
X-8776Y-57392D02*
X-8776Y-60674D01*
X-9870Y-57392D02*
X-7682Y-57392D01*
X-52682Y-64131D02*
X-52995Y-63819D01*
X-53463Y-63662D01*
X-54088Y-63662D01*
X-54557Y-63819D01*
X-54870Y-64131D01*
X-54870Y-64444D01*
X-54713Y-64756D01*
X-54557Y-64912D01*
X-54245Y-65069D01*
X-53307Y-65381D01*
X-52995Y-65537D01*
X-52838Y-65694D01*
X-52682Y-66006D01*
X-52682Y-66475D01*
X-52995Y-66787D01*
X-53463Y-66944D01*
X-54088Y-66944D01*
X-54557Y-66787D01*
X-54870Y-66475D01*
X-51588Y-63662D02*
X-51588Y-66944D01*
X-48307Y-63662D02*
X-50495Y-66944D01*
X-50495Y-63662D02*
X-48307Y-63662D01*
X-50495Y-66944D02*
X-48307Y-66944D01*
X-47213Y-63662D02*
X-47213Y-66944D01*
X-47213Y-63662D02*
X-45182Y-63662D01*
X-47213Y-65225D02*
X-45963Y-65225D01*
X-47213Y-66944D02*
X-45182Y-66944D01*
X-44088Y-64756D02*
X-44245Y-64912D01*
X-44088Y-65069D01*
X-43932Y-64912D01*
X-44088Y-64756D01*
X-44088Y-66631D02*
X-44245Y-66787D01*
X-44088Y-66944D01*
X-43932Y-66787D01*
X-44088Y-66631D01*
X-42682Y-64444D02*
X-42682Y-64287D01*
X-42526Y-63975D01*
X-42370Y-63819D01*
X-42057Y-63662D01*
X-41432Y-63662D01*
X-41120Y-63819D01*
X-40963Y-63975D01*
X-40807Y-64287D01*
X-40807Y-64600D01*
X-40963Y-64912D01*
X-41276Y-65381D01*
X-42838Y-66944D01*
X-40651Y-66944D01*
X-38932Y-63662D02*
X-39401Y-63819D01*
X-39557Y-64131D01*
X-39557Y-64444D01*
X-39401Y-64756D01*
X-39088Y-64912D01*
X-38463Y-65069D01*
X-37995Y-65225D01*
X-37682Y-65537D01*
X-37526Y-65850D01*
X-37526Y-66319D01*
X-37682Y-66631D01*
X-37838Y-66787D01*
X-38307Y-66944D01*
X-38932Y-66944D01*
X-39401Y-66787D01*
X-39557Y-66631D01*
X-39713Y-66319D01*
X-39713Y-65850D01*
X-39557Y-65537D01*
X-39245Y-65225D01*
X-38776Y-65069D01*
X-38151Y-64912D01*
X-37838Y-64756D01*
X-37682Y-64444D01*
X-37682Y-64131D01*
X-37838Y-63819D01*
X-38307Y-63662D01*
X-38932Y-63662D01*
X-36276Y-66631D02*
X-36432Y-66787D01*
X-36276Y-66944D01*
X-36120Y-66787D01*
X-36276Y-66631D01*
X-34088Y-63662D02*
X-34557Y-63819D01*
X-34870Y-64287D01*
X-35026Y-65069D01*
X-35026Y-65537D01*
X-34870Y-66319D01*
X-34557Y-66787D01*
X-34088Y-66944D01*
X-33776Y-66944D01*
X-33307Y-66787D01*
X-32995Y-66319D01*
X-32838Y-65537D01*
X-32838Y-65069D01*
X-32995Y-64287D01*
X-33307Y-63819D01*
X-33776Y-63662D01*
X-34088Y-63662D01*
X-31901Y-63662D02*
X-29713Y-66944D01*
X-29713Y-63662D02*
X-31901Y-66944D01*
X-28463Y-63662D02*
X-26745Y-63662D01*
X-27682Y-64912D01*
X-27213Y-64912D01*
X-26901Y-65069D01*
X-26745Y-65225D01*
X-26588Y-65694D01*
X-26588Y-66006D01*
X-26745Y-66475D01*
X-27057Y-66787D01*
X-27526Y-66944D01*
X-27995Y-66944D01*
X-28463Y-66787D01*
X-28620Y-66631D01*
X-28776Y-66319D01*
X-24870Y-63662D02*
X-25338Y-63819D01*
X-25495Y-64131D01*
X-25495Y-64444D01*
X-25338Y-64756D01*
X-25026Y-64912D01*
X-24401Y-65069D01*
X-23932Y-65225D01*
X-23620Y-65537D01*
X-23463Y-65850D01*
X-23463Y-66319D01*
X-23620Y-66631D01*
X-23776Y-66787D01*
X-24245Y-66944D01*
X-24870Y-66944D01*
X-25338Y-66787D01*
X-25495Y-66631D01*
X-25651Y-66319D01*
X-25651Y-65850D01*
X-25495Y-65537D01*
X-25182Y-65225D01*
X-24713Y-65069D01*
X-24088Y-64912D01*
X-23776Y-64756D01*
X-23620Y-64444D01*
X-23620Y-64131D01*
X-23776Y-63819D01*
X-24245Y-63662D01*
X-24870Y-63662D01*
X-22213Y-66631D02*
X-22370Y-66787D01*
X-22213Y-66944D01*
X-22057Y-66787D01*
X-22213Y-66631D01*
X-20026Y-63662D02*
X-20495Y-63819D01*
X-20807Y-64287D01*
X-20963Y-65069D01*
X-20963Y-65537D01*
X-20807Y-66319D01*
X-20495Y-66787D01*
X-20026Y-66944D01*
X-19713Y-66944D01*
X-19245Y-66787D01*
X-18932Y-66319D01*
X-18776Y-65537D01*
X-18776Y-65069D01*
X-18932Y-64287D01*
X-19245Y-63819D01*
X-19713Y-63662D01*
X-20026Y-63662D01*
X-13463Y-65225D02*
X-13776Y-64912D01*
X-14088Y-64756D01*
X-14557Y-64756D01*
X-14870Y-64912D01*
X-15182Y-65225D01*
X-15338Y-65694D01*
X-15338Y-66006D01*
X-15182Y-66475D01*
X-14870Y-66787D01*
X-14557Y-66944D01*
X-14088Y-66944D01*
X-13776Y-66787D01*
X-13463Y-66475D01*
X-12370Y-64756D02*
X-12370Y-66944D01*
X-12370Y-65381D02*
X-11901Y-64912D01*
X-11588Y-64756D01*
X-11120Y-64756D01*
X-10807Y-64912D01*
X-10651Y-65381D01*
X-10651Y-66944D01*
X-10651Y-65381D02*
X-10182Y-64912D01*
X-9870Y-64756D01*
X-9401Y-64756D01*
X-9088Y-64912D01*
X-8932Y-65381D01*
X-8932Y-66944D01*
X443Y-63662D02*
X443Y-66944D01*
X-651Y-63662D02*
X1537Y-63662D01*
X2474Y-64756D02*
X2318Y-64912D01*
X2474Y-65069D01*
X2630Y-64912D01*
X2474Y-64756D01*
X2474Y-66631D02*
X2318Y-66787D01*
X2474Y-66944D01*
X2630Y-66787D01*
X2474Y-66631D01*
X4662Y-63662D02*
X4193Y-63819D01*
X3880Y-64287D01*
X3724Y-65069D01*
X3724Y-65537D01*
X3880Y-66319D01*
X4193Y-66787D01*
X4662Y-66944D01*
X4974Y-66944D01*
X5443Y-66787D01*
X5755Y-66319D01*
X5912Y-65537D01*
X5912Y-65069D01*
X5755Y-64287D01*
X5443Y-63819D01*
X4974Y-63662D01*
X4662Y-63662D01*
X7162Y-66631D02*
X7005Y-66787D01*
X7162Y-66944D01*
X7318Y-66787D01*
X7162Y-66631D01*
X8880Y-64287D02*
X9193Y-64131D01*
X9662Y-63662D01*
X9662Y-66944D01*
X11693Y-64444D02*
X11693Y-64287D01*
X11849Y-63975D01*
X12005Y-63819D01*
X12318Y-63662D01*
X12943Y-63662D01*
X13255Y-63819D01*
X13412Y-63975D01*
X13568Y-64287D01*
X13568Y-64600D01*
X13412Y-64912D01*
X13099Y-65381D01*
X11537Y-66944D01*
X13724Y-66944D01*
X14818Y-63662D02*
X14818Y-66944D01*
X14818Y-63662D02*
X16068Y-66944D01*
X17318Y-63662D02*
X16068Y-66944D01*
X17318Y-63662D02*
X17318Y-66944D01*
X18568Y-63662D02*
X18568Y-66944D01*
X18568Y-63662D02*
X19818Y-66944D01*
X21068Y-63662D02*
X19818Y-66944D01*
X21068Y-63662D02*
X21068Y-66944D01*
X-54713Y-69932D02*
X-54713Y-73214D01*
X-54713Y-69932D02*
X-53620Y-69932D01*
X-53151Y-70089D01*
X-52838Y-70401D01*
X-52682Y-70714D01*
X-52526Y-71182D01*
X-52526Y-71964D01*
X-52682Y-72432D01*
X-52838Y-72745D01*
X-53151Y-73057D01*
X-53620Y-73214D01*
X-54713Y-73214D01*
X-50651Y-69932D02*
X-51901Y-73214D01*
X-50651Y-69932D02*
X-49401Y-73214D01*
X-51432Y-72120D02*
X-49870Y-72120D01*
X-47995Y-69932D02*
X-47995Y-73214D01*
X-49088Y-69932D02*
X-46901Y-69932D01*
X-46120Y-69932D02*
X-46120Y-73214D01*
X-46120Y-69932D02*
X-44088Y-69932D01*
X-46120Y-71495D02*
X-44870Y-71495D01*
X-46120Y-73214D02*
X-44088Y-73214D01*
X-42995Y-71026D02*
X-43151Y-71182D01*
X-42995Y-71339D01*
X-42838Y-71182D01*
X-42995Y-71026D01*
X-42995Y-72901D02*
X-43151Y-73057D01*
X-42995Y-73214D01*
X-42838Y-73057D01*
X-42995Y-72901D01*
X-41588Y-70714D02*
X-41588Y-70557D01*
X-41432Y-70245D01*
X-41276Y-70089D01*
X-40963Y-69932D01*
X-40338Y-69932D01*
X-40026Y-70089D01*
X-39870Y-70245D01*
X-39713Y-70557D01*
X-39713Y-70870D01*
X-39870Y-71182D01*
X-40182Y-71651D01*
X-41745Y-73214D01*
X-39557Y-73214D01*
X-37682Y-69932D02*
X-38151Y-70089D01*
X-38463Y-70557D01*
X-38620Y-71339D01*
X-38620Y-71807D01*
X-38463Y-72589D01*
X-38151Y-73057D01*
X-37682Y-73214D01*
X-37370Y-73214D01*
X-36901Y-73057D01*
X-36588Y-72589D01*
X-36432Y-71807D01*
X-36432Y-71339D01*
X-36588Y-70557D01*
X-36901Y-70089D01*
X-37370Y-69932D01*
X-37682Y-69932D01*
X-35338Y-70714D02*
X-35338Y-70557D01*
X-35182Y-70245D01*
X-35026Y-70089D01*
X-34713Y-69932D01*
X-34088Y-69932D01*
X-33776Y-70089D01*
X-33620Y-70245D01*
X-33463Y-70557D01*
X-33463Y-70870D01*
X-33620Y-71182D01*
X-33932Y-71651D01*
X-35495Y-73214D01*
X-33307Y-73214D01*
X-30495Y-69932D02*
X-32057Y-69932D01*
X-32213Y-71339D01*
X-32057Y-71182D01*
X-31588Y-71026D01*
X-31120Y-71026D01*
X-30651Y-71182D01*
X-30338Y-71495D01*
X-30182Y-71964D01*
X-30182Y-72276D01*
X-30338Y-72745D01*
X-30651Y-73057D01*
X-31120Y-73214D01*
X-31588Y-73214D01*
X-32057Y-73057D01*
X-32213Y-72901D01*
X-32370Y-72589D01*
X-29088Y-71807D02*
X-26276Y-71807D01*
X-24713Y-70557D02*
X-24401Y-70401D01*
X-23932Y-69932D01*
X-23932Y-73214D01*
X-21901Y-70714D02*
X-21901Y-70557D01*
X-21745Y-70245D01*
X-21588Y-70089D01*
X-21276Y-69932D01*
X-20651Y-69932D01*
X-20338Y-70089D01*
X-20182Y-70245D01*
X-20026Y-70557D01*
X-20026Y-70870D01*
X-20182Y-71182D01*
X-20495Y-71651D01*
X-22057Y-73214D01*
X-19870Y-73214D01*
X-18776Y-71807D02*
X-15963Y-71807D01*
X-14713Y-70714D02*
X-14713Y-70557D01*
X-14557Y-70245D01*
X-14401Y-70089D01*
X-14088Y-69932D01*
X-13463Y-69932D01*
X-13151Y-70089D01*
X-12995Y-70245D01*
X-12838Y-70557D01*
X-12838Y-70870D01*
X-12995Y-71182D01*
X-13307Y-71651D01*
X-14870Y-73214D01*
X-12682Y-73214D01*
X-11432Y-69932D02*
X-9713Y-69932D01*
X-10651Y-71182D01*
X-10182Y-71182D01*
X-9870Y-71339D01*
X-9713Y-71495D01*
X-9557Y-71964D01*
X-9557Y-72276D01*
X-9713Y-72745D01*
X-10026Y-73057D01*
X-10495Y-73214D01*
X-10963Y-73214D01*
X-11432Y-73057D01*
X-11588Y-72901D01*
X-11745Y-72589D01*
X-5651Y-70557D02*
X-5338Y-70401D01*
X-4870Y-69932D01*
X-4870Y-73214D01*
X-2838Y-70714D02*
X-2838Y-70557D01*
X-2682Y-70245D01*
X-2526Y-70089D01*
X-2213Y-69932D01*
X-1588Y-69932D01*
X-1276Y-70089D01*
X-1120Y-70245D01*
X-963Y-70557D01*
X-963Y-70870D01*
X-1120Y-71182D01*
X-1432Y-71651D01*
X-2995Y-73214D01*
X-807Y-73214D01*
X443Y-71026D02*
X287Y-71182D01*
X443Y-71339D01*
X599Y-71182D01*
X443Y-71026D01*
X443Y-72901D02*
X287Y-73057D01*
X443Y-73214D01*
X599Y-73057D01*
X443Y-72901D01*
X2630Y-69932D02*
X2162Y-70089D01*
X1849Y-70557D01*
X1693Y-71339D01*
X1693Y-71807D01*
X1849Y-72589D01*
X2162Y-73057D01*
X2630Y-73214D01*
X2943Y-73214D01*
X3412Y-73057D01*
X3724Y-72589D01*
X3880Y-71807D01*
X3880Y-71339D01*
X3724Y-70557D01*
X3412Y-70089D01*
X2943Y-69932D01*
X2630Y-69932D01*
X5755Y-69932D02*
X5287Y-70089D01*
X4974Y-70557D01*
X4818Y-71339D01*
X4818Y-71807D01*
X4974Y-72589D01*
X5287Y-73057D01*
X5755Y-73214D01*
X6068Y-73214D01*
X6537Y-73057D01*
X6849Y-72589D01*
X7005Y-71807D01*
X7005Y-71339D01*
X6849Y-70557D01*
X6537Y-70089D01*
X6068Y-69932D01*
X5755Y-69932D01*
X-54713Y-76202D02*
X-54713Y-79484D01*
X-54713Y-76202D02*
X-52526Y-79484D01*
X-52526Y-76202D02*
X-52526Y-79484D01*
X-50495Y-76202D02*
X-50807Y-76359D01*
X-51120Y-76671D01*
X-51276Y-76984D01*
X-51432Y-77452D01*
X-51432Y-78234D01*
X-51276Y-78702D01*
X-51120Y-79015D01*
X-50807Y-79327D01*
X-50495Y-79484D01*
X-49870Y-79484D01*
X-49557Y-79327D01*
X-49245Y-79015D01*
X-49088Y-78702D01*
X-48932Y-78234D01*
X-48932Y-77452D01*
X-49088Y-76984D01*
X-49245Y-76671D01*
X-49557Y-76359D01*
X-49870Y-76202D01*
X-50495Y-76202D01*
X-47682Y-77296D02*
X-47838Y-77452D01*
X-47682Y-77609D01*
X-47526Y-77452D01*
X-47682Y-77296D01*
X-47682Y-79171D02*
X-47838Y-79327D01*
X-47682Y-79484D01*
X-47526Y-79327D01*
X-47682Y-79171D01*
X-44245Y-76671D02*
X-44557Y-76359D01*
X-45026Y-76202D01*
X-45651Y-76202D01*
X-46120Y-76359D01*
X-46432Y-76671D01*
X-46432Y-76984D01*
X-46276Y-77296D01*
X-46120Y-77452D01*
X-45807Y-77609D01*
X-44870Y-77921D01*
X-44557Y-78077D01*
X-44401Y-78234D01*
X-44245Y-78546D01*
X-44245Y-79015D01*
X-44557Y-79327D01*
X-45026Y-79484D01*
X-45651Y-79484D01*
X-46120Y-79327D01*
X-46432Y-79015D01*
X-42370Y-76202D02*
X-42682Y-76359D01*
X-42995Y-76671D01*
X-43151Y-76984D01*
X-43307Y-77452D01*
X-43307Y-78234D01*
X-43151Y-78702D01*
X-42995Y-79015D01*
X-42682Y-79327D01*
X-42370Y-79484D01*
X-41745Y-79484D01*
X-41432Y-79327D01*
X-41120Y-79015D01*
X-40963Y-78702D01*
X-40807Y-78234D01*
X-40807Y-77452D01*
X-40963Y-76984D01*
X-41120Y-76671D01*
X-41432Y-76359D01*
X-41745Y-76202D01*
X-42370Y-76202D01*
X-39401Y-76827D02*
X-39088Y-76671D01*
X-38620Y-76202D01*
X-38620Y-79484D01*
X-36588Y-76984D02*
X-36588Y-76827D01*
X-36432Y-76515D01*
X-36276Y-76359D01*
X-35963Y-76202D01*
X-35338Y-76202D01*
X-35026Y-76359D01*
X-34870Y-76515D01*
X-34713Y-76827D01*
X-34713Y-77140D01*
X-34870Y-77452D01*
X-35182Y-77921D01*
X-36745Y-79484D01*
X-34557Y-79484D01*
X-31745Y-76202D02*
X-33307Y-76202D01*
X-33463Y-77609D01*
X-33307Y-77452D01*
X-32838Y-77296D01*
X-32370Y-77296D01*
X-31901Y-77452D01*
X-31588Y-77765D01*
X-31432Y-78234D01*
X-31432Y-78546D01*
X-31588Y-79015D01*
X-31901Y-79327D01*
X-32370Y-79484D01*
X-32838Y-79484D01*
X-33307Y-79327D01*
X-33463Y-79171D01*
X-33620Y-78859D01*
X-30026Y-76827D02*
X-29713Y-76671D01*
X-29245Y-76202D01*
X-29245Y-79484D01*
X-27213Y-76984D02*
X-27213Y-76827D01*
X-27057Y-76515D01*
X-26901Y-76359D01*
X-26588Y-76202D01*
X-25963Y-76202D01*
X-25651Y-76359D01*
X-25495Y-76515D01*
X-25338Y-76827D01*
X-25338Y-77140D01*
X-25495Y-77452D01*
X-25807Y-77921D01*
X-27370Y-79484D01*
X-25182Y-79484D01*
X-23776Y-76827D02*
X-23463Y-76671D01*
X-22995Y-76202D01*
X-22995Y-79484D01*
X-19088Y-77296D02*
X-19245Y-77765D01*
X-19557Y-78077D01*
X-20026Y-78234D01*
X-20182Y-78234D01*
X-20651Y-78077D01*
X-20963Y-77765D01*
X-21120Y-77296D01*
X-21120Y-77140D01*
X-20963Y-76671D01*
X-20651Y-76359D01*
X-20182Y-76202D01*
X-20026Y-76202D01*
X-19557Y-76359D01*
X-19245Y-76671D01*
X-19088Y-77296D01*
X-19088Y-78077D01*
X-19245Y-78859D01*
X-19557Y-79327D01*
X-20026Y-79484D01*
X-20338Y-79484D01*
X-20807Y-79327D01*
X-20963Y-79015D01*
X-15963Y-76671D02*
X-16120Y-76359D01*
X-16588Y-76202D01*
X-16901Y-76202D01*
X-17370Y-76359D01*
X-17682Y-76827D01*
X-17838Y-77609D01*
X-17838Y-78390D01*
X-17682Y-79015D01*
X-17370Y-79327D01*
X-16901Y-79484D01*
X-16745Y-79484D01*
X-16276Y-79327D01*
X-15963Y-79015D01*
X-15807Y-78546D01*
X-15807Y-78390D01*
X-15963Y-77921D01*
X-16276Y-77609D01*
X-16745Y-77452D01*
X-16901Y-77452D01*
X-17370Y-77609D01*
X-17682Y-77921D01*
X-17838Y-78390D01*
X-12682Y-76202D02*
X-14245Y-79484D01*
X-14870Y-76202D02*
X-12682Y-76202D01*
X-9557Y-76202D02*
X-11120Y-79484D01*
X-11745Y-76202D02*
X-9557Y-76202D01*
X-6432Y-76202D02*
X-7995Y-79484D01*
X-8620Y-76202D02*
X-6432Y-76202D01*
X-5338Y-78077D02*
X-2526Y-78077D01*
X-1276Y-76984D02*
X-1276Y-76827D01*
X-1120Y-76515D01*
X-963Y-76359D01*
X-651Y-76202D01*
X-26Y-76202D01*
X287Y-76359D01*
X443Y-76515D01*
X599Y-76827D01*
X599Y-77140D01*
X443Y-77452D01*
X130Y-77921D01*
X-1432Y-79484D01*
X755Y-79484D01*
X12005Y-76202D02*
X13724Y-76202D01*
X12787Y-77452D01*
X13255Y-77452D01*
X13568Y-77609D01*
X13724Y-77765D01*
X13880Y-78234D01*
X13880Y-78546D01*
X13724Y-79015D01*
X13412Y-79327D01*
X12943Y-79484D01*
X12474Y-79484D01*
X12005Y-79327D01*
X11849Y-79171D01*
X11693Y-78859D01*
X14974Y-76984D02*
X14974Y-76827D01*
X15130Y-76515D01*
X15287Y-76359D01*
X15599Y-76202D01*
X16224Y-76202D01*
X16537Y-76359D01*
X16693Y-76515D01*
X16849Y-76827D01*
X16849Y-77140D01*
X16693Y-77452D01*
X16380Y-77921D01*
X14818Y-79484D01*
X17005Y-79484D01*
X18724Y-76202D02*
X18255Y-76359D01*
X18099Y-76671D01*
X18099Y-76984D01*
X18255Y-77296D01*
X18568Y-77452D01*
X19193Y-77609D01*
X19662Y-77765D01*
X19974Y-78077D01*
X20130Y-78390D01*
X20130Y-78859D01*
X19974Y-79171D01*
X19818Y-79327D01*
X19349Y-79484D01*
X18724Y-79484D01*
X18255Y-79327D01*
X18099Y-79171D01*
X17943Y-78859D01*
X17943Y-78390D01*
X18099Y-78077D01*
X18412Y-77765D01*
X18880Y-77609D01*
X19505Y-77452D01*
X19818Y-77296D01*
X19974Y-76984D01*
X19974Y-76671D01*
X19818Y-76359D01*
X19349Y-76202D01*
X18724Y-76202D01*
X22630Y-76202D02*
X21068Y-78390D01*
X23412Y-78390D01*
X22630Y-76202D02*
X22630Y-79484D01*
X26224Y-76671D02*
X26068Y-76359D01*
X25599Y-76202D01*
X25287Y-76202D01*
X24818Y-76359D01*
X24505Y-76827D01*
X24349Y-77609D01*
X24349Y-78390D01*
X24505Y-79015D01*
X24818Y-79327D01*
X25287Y-79484D01*
X25443Y-79484D01*
X25912Y-79327D01*
X26224Y-79015D01*
X26380Y-78546D01*
X26380Y-78390D01*
X26224Y-77921D01*
X25912Y-77609D01*
X25443Y-77452D01*
X25287Y-77452D01*
X24818Y-77609D01*
X24505Y-77921D01*
X24349Y-78390D01*
X29349Y-77296D02*
X29193Y-77765D01*
X28880Y-78077D01*
X28412Y-78234D01*
X28255Y-78234D01*
X27787Y-78077D01*
X27474Y-77765D01*
X27318Y-77296D01*
X27318Y-77140D01*
X27474Y-76671D01*
X27787Y-76359D01*
X28255Y-76202D01*
X28412Y-76202D01*
X28880Y-76359D01*
X29193Y-76671D01*
X29349Y-77296D01*
X29349Y-78077D01*
X29193Y-78859D01*
X28880Y-79327D01*
X28412Y-79484D01*
X28099Y-79484D01*
X27630Y-79327D01*
X27474Y-79015D01*
X32474Y-77296D02*
X32318Y-77765D01*
X32005Y-78077D01*
X31537Y-78234D01*
X31380Y-78234D01*
X30912Y-78077D01*
X30599Y-77765D01*
X30443Y-77296D01*
X30443Y-77140D01*
X30599Y-76671D01*
X30912Y-76359D01*
X31380Y-76202D01*
X31537Y-76202D01*
X32005Y-76359D01*
X32318Y-76671D01*
X32474Y-77296D01*
X32474Y-78077D01*
X32318Y-78859D01*
X32005Y-79327D01*
X31537Y-79484D01*
X31224Y-79484D01*
X30755Y-79327D01*
X30599Y-79015D01*
X34505Y-76202D02*
X33255Y-79484D01*
X34505Y-76202D02*
X35755Y-79484D01*
X33724Y-78390D02*
X35287Y-78390D01*
X40130Y-75577D02*
X39818Y-75890D01*
X39505Y-76359D01*
X39193Y-76984D01*
X39037Y-77765D01*
X39037Y-78390D01*
X39193Y-79171D01*
X39505Y-79796D01*
X39818Y-80265D01*
X40130Y-80577D01*
X41068Y-75577D02*
X41380Y-75890D01*
X41693Y-76359D01*
X42005Y-76984D01*
X42162Y-77765D01*
X42162Y-78390D01*
X42005Y-79171D01*
X41693Y-79796D01*
X41380Y-80265D01*
X41068Y-80577D01*
M02*
